<?xml version="1.0" encoding="UTF-8"?>
<svg width="128pt" height="128pt" version="1.1" viewBox="0 0 128 128" xmlns="http://www.w3.org/2000/svg">
 <g fill="#6019ff">
  <path d="m63.914 63.496c-11.543 0-20.898 11.203-20.898 18.371 0 7.168 9.3555 11.629 20.898 11.629 11.543 0 20.898-4.4609 20.898-11.629 0.003906-7.1719-9.3555-18.371-20.898-18.371z"/>
  <path d="m75.543 47.988c0 7.4453-5.2031 13.484-11.629 13.484-6.4219 0-11.629-6.0391-11.629-13.484 0-7.4453 5.207-13.484 11.629-13.484 6.4258 0 11.629 6.0391 11.629 13.484"/>
  <path d="m89.094 62.508c-3.4531 0-6.6367 1.3672-9.207 3.332 5.6016 4.4453 9.207 10.746 9.207 15.492 0 1.1953-0.25391 2.3125-0.68359 3.3711 0.23047 0.003906 0.45312 0.015625 0.68359 0.015625 8.5469 0 15.473-3.3008 15.473-8.6094s-6.9297-13.602-15.473-13.602z"/>
  <path d="m97.703 51.027c0 5.5156-3.8555 9.9844-8.6094 9.9844-4.7578 0-8.6094-4.4688-8.6094-9.9844 0-5.5117 3.8516-9.9805 8.6094-9.9805 4.7539 0 8.6094 4.4688 8.6094 9.9805"/>
  <path d="m48.113 65.84c-2.5742-1.9648-5.7539-3.332-9.207-3.332-8.5469 0-15.473 8.293-15.473 13.602s6.9258 8.6094 15.473 8.6094c0.23047 0 0.45312-0.011719 0.68359-0.015625-0.42969-1.0547-0.68359-2.1758-0.68359-3.3711 0-4.75 3.6094-11.047 9.207-15.492z"/>
  <path d="m47.52 51.027c0 5.5156-3.8555 9.9844-8.6133 9.9844-4.7539 0-8.6094-4.4688-8.6094-9.9844 0-5.5117 3.8555-9.9805 8.6094-9.9805 4.7578 0 8.6133 4.4688 8.6133 9.9805"/>
 </g>
</svg>
