<?xml version="1.0" encoding="UTF-8"?>
<svg width="128pt" height="128pt" version="1.1" viewBox="0 0 128 128" xmlns="http://www.w3.org/2000/svg">
 <path d="m25.668 125.44c-4.0742 0.011719-7.9883-1.5938-10.883-4.4648-2.8906-2.8711-4.5273-6.7734-4.5469-10.852v-92.25c0-8.4492 6.9141-15.316 15.43-15.316h61.305l30.789 30.676v76.891c0 8.4492-6.9141 15.316-15.43 15.316zm36.797-48.133c0.17969 0.23828 0.41016 0.43359 0.67578 0.56641s0.5625 0.20312 0.85938 0.20312 0.59375-0.070313 0.85938-0.20312 0.49609-0.32812 0.67578-0.56641l19.199-25.598c0.21484-0.28516 0.34766-0.625 0.37891-0.98047 0.03125-0.35156-0.035156-0.71094-0.19531-1.0273-0.16016-0.32031-0.40625-0.58984-0.70703-0.77734-0.30469-0.1875-0.65625-0.28516-1.0117-0.28516h-9.5977c-0.51172 0-1-0.20312-1.3594-0.5625-0.35938-0.35938-0.5625-0.84766-0.5625-1.3594v-11.52c0-0.50781-0.20313-0.99609-0.5625-1.3555-0.35938-0.36328-0.84766-0.5625-1.3555-0.5625h-11.523c-0.50781 0-0.99609 0.19922-1.3555 0.5625-0.35937 0.35938-0.5625 0.84766-0.5625 1.3555v11.52c0 0.51172-0.20312 1-0.5625 1.3594-0.35937 0.35938-0.84766 0.5625-1.3594 0.5625h-9.5977c-0.35547 0-0.70703 0.097656-1.0117 0.28516-0.30078 0.1875-0.54687 0.45703-0.70703 0.77734-0.16016 0.31641-0.22656 0.67578-0.19531 1.0273 0.03125 0.35547 0.16406 0.69531 0.37891 0.98047zm-17.664 9.7305c-1.0195 0-1.9961 0.40625-2.7148 1.125-0.72266 0.72266-1.125 1.6992-1.125 2.7148 0 1.0195 0.40234 1.9961 1.125 2.7148 0.71875 0.72266 1.6953 1.125 2.7148 1.125h38.398c1.0195 0 1.9961-0.40234 2.7148-1.125 0.72266-0.71875 1.125-1.6953 1.125-2.7148 0-1.0156-0.40234-1.9922-1.125-2.7148-0.71875-0.71875-1.6953-1.125-2.7148-1.125z" fill="#ff6700"/>
</svg>
