<?xml version="1.0" encoding="UTF-8"?>
<svg width="128pt" height="128pt" version="1.1" viewBox="0 0 128 128" xmlns="http://www.w3.org/2000/svg">
 <g fill="#6019ff">
  <path d="m114.67 5.332h-101.33c-7.3516 0-13.336 5.9844-13.336 13.336v90.668c0 7.3477 5.9844 13.332 13.332 13.332h101.33c7.3477 0 13.332-5.9844 13.332-13.332v-90.668c0.003906-7.3516-5.9805-13.336-13.328-13.336zm-101.34 5.3359h101.33c4.4141 0 8.0039 3.5898 8.0039 8v8h-117.34v-8c0-4.4102 3.5898-8 8-8zm101.34 106.66h-24v-8c0-1.4727-1.1953-2.668-2.668-2.668-1.4727 0.003907-2.668 1.1992-2.668 2.668v8h-72c-4.4102 0-8-3.5898-8-8v-77.332h80v8c0 1.4727 1.1953 2.668 2.668 2.668s2.668-1.1953 2.668-2.668v-8h32v77.332c0 4.4102-3.5898 8-8 8z"/>
  <path d="m16 18.668c0 3.5547-5.332 3.5547-5.332 0 0-3.5586 5.332-3.5586 5.332 0"/>
  <path d="m26.668 18.668c0 3.5547-5.3359 3.5547-5.3359 0 0-3.5586 5.3359-3.5586 5.3359 0"/>
  <path d="m37.332 18.668c0 3.5547-5.332 3.5547-5.332 0 0-3.5586 5.332-3.5586 5.332 0"/>
  <path d="m88 53.332c-1.4727 0-2.668 1.1953-2.668 2.668v10.668c0 1.4727 1.1953 2.668 2.668 2.668s2.668-1.1953 2.668-2.668v-10.668c0-1.4727-1.1953-2.668-2.668-2.668z"/>
  <path d="m88 80c-1.4727 0-2.668 1.1953-2.668 2.668v10.668c0 1.4727 1.1953 2.668 2.668 2.668s2.668-1.1953 2.668-2.668v-10.668c0-1.4727-1.1953-2.668-2.668-2.668z"/>
  <path d="m72 69.332h-20.23l6.1133-6.1133c1.0391-1.0391 1.0391-2.7305 0-3.7695-1.0391-1.0391-2.7305-1.0391-3.7695 0l-10.668 10.668c-0.019531 0.019531-0.027343 0.054687-0.054687 0.074218-0.21484 0.23047-0.39844 0.49219-0.52344 0.78516-0.27344 0.65625-0.27344 1.3906 0 2.0469 0.074218 0.17578 0.20312 0.30859 0.30859 0.46484 0.089844 0.13281 0.14453 0.27734 0.26172 0.39453l10.668 10.668c0.52734 0.51953 1.2109 0.78125 1.8945 0.78125s1.3672-0.26172 1.8828-0.78516c1.0391-1.0391 1.0391-2.7305 0-3.7695l-6.1133-6.1094h20.23c1.4727 0 2.668-1.1953 2.668-2.668s-1.1953-2.668-2.668-2.668z"/>
 </g>
</svg>
